<?xml version="1.0" encoding="UTF-8"?>
<svg id="Layer_2" data-name="Layer 2" xmlns="http://www.w3.org/2000/svg" viewBox="0 0 1080 785.17">
  <g id="Layer_1-2" data-name="Layer 1">
    <path d="m0,443c0-23.93,5.09-44.68,15.28-62.25,10.18-17.57,23.93-32.46,41.24-44.69,17.31-12.22,37.43-22.15,60.34-29.78,22.92-7.64,47.09-13.49,72.56-17.57-23.43-4.58-42.66-13.1-57.67-25.59-15.03-12.47-25.59-26.6-31.7-42.39-6.11-15.77-8.02-32.33-5.73-49.64,2.29-17.31,8.78-33.09,19.48-47.35,10.7-14.25,25.32-26.09,43.92-35.52,18.58-9.42,41.11-14.13,67.6-14.13,31.57,0,61.22,2.94,88.98,8.78,27.74,5.86,52.32,15.4,73.7,28.64,21.39,13.25,38.82,30.69,52.32,52.32,13.48,21.65,21.51,48.25,24.06,79.82,1.02,8.67,1.53,17.57,1.53,26.73v216.15c0,14.78,1.01,28.53,3.05,41.25,6.11,47.35,18.2,86.94,36.28,118.77,18.07,31.82,40.1,57.4,66.07,76.76,25.97,19.34,54.86,33.22,86.69,41.62,31.81,8.4,64.28,12.6,97.38,12.6,14.76,0,31.19-1.14,49.26-3.44,18.07-2.29,36.28-5.86,54.61-10.69,18.33-4.84,36.15-10.83,53.47-17.95,17.31-7.14,32.72-15.41,46.21-24.83,13.49-9.43,24.31-19.99,32.46-31.7,8.14-11.72,12.22-24.7,12.22-38.95,0-15.28-5.1-28.14-15.28-38.57-10.19-10.44-23.56-19.09-40.1-25.97-16.55-6.87-35.26-12.34-56.14-16.43-20.88-4.07-42.14-7.25-63.78-9.55-21.65-2.29-42.77-4.45-63.39-6.49-20.63-2.03-38.84-4.32-54.62-6.87-17.83-3.06-31.82-7.13-42.01-12.22-10.19-5.08-17.83-10.69-22.91-16.8-5.1-6.11-8.15-12.47-9.17-19.09-1.03-6.61-1.03-12.99,0-19.09,1.53-10.18,7.13-18.96,16.8-26.35,9.67-7.38,21.51-13.75,35.52-19.09,14-5.35,29.02-9.55,45.06-12.6,16.04-3.06,31.44-5.09,46.21-6.11-27.49-3.06-52.83-8.78-76-17.18-23.17-8.4-43.03-19.6-59.57-33.61-16.55-14-29.41-30.93-38.57-50.79-9.16-19.86-13.75-42.51-13.75-67.98,0-30.04,6.61-56.01,19.86-77.9,13.23-21.89,30.42-39.97,51.55-54.23,21.12-14.25,44.93-24.82,71.41-31.7,26.47-6.87,52.95-10.31,79.43-10.31,13.24,0,27.12,1.41,41.63,4.2,14.51,2.81,28.38,5.48,41.62,8.02,20.87-24.94,43.41-45.06,67.6-60.34,24.18-15.28,51.55-22.91,82.11-22.91,11.71,0,22.65,1.03,32.84,3.06l-30.55,105.4h-5.35c-2.55-15.28-10.44-28-23.68-38.19-13.25-10.18-28.77-15.28-46.59-15.28-10.7,0-21.77,2.42-33.23,7.25-11.45,4.85-22.28,12.87-32.46,24.06,16.8,6.11,33.09,13.88,48.88,23.3,15.78,9.43,29.65,20.62,41.62,33.61,11.96,12.98,21.51,27.88,28.64,44.68,7.12,16.8,10.69,35.4,10.69,55.76,0,32.08-6.37,59.19-19.09,81.34-12.74,22.15-30.05,40.1-51.94,53.85-21.9,13.75-47.74,24.06-77.53,30.93-29.79,6.87-61.48,11.07-95.09,12.6-51.44,4.08-77.14,14.51-77.14,31.32,0,4.58,2.29,8.66,6.87,12.22,8.14,6.11,22.53,10.57,43.15,13.36,20.62,2.81,44.04,5.61,70.27,8.4,26.22,2.81,53.47,6.5,81.73,11.07,28.26,4.58,54.1,11.59,77.52,21,23.42,9.43,42.77,22.41,58.05,38.96,15.28,16.55,22.92,38.06,22.92,64.54,0,20.36-5.1,38.44-15.28,54.23-10.19,15.78-23.94,29.66-41.25,41.63-17.32,11.95-37.05,22.15-59.19,30.55-22.15,8.4-45.19,15.28-69.12,20.62-23.94,5.35-47.74,9.17-71.41,11.46s-45.71,3.43-66.07,3.43c-24.44,0-51.05-1.91-79.82-5.72-28.77-3.82-57.55-10.44-86.31-19.86-28.77-9.43-56.4-21.9-82.87-37.43-26.48-15.53-50.03-35.02-70.65-58.43-20.62-23.43-37.05-51.31-49.26-83.63-12.22-32.33-18.33-69.89-18.33-112.66-14.26,39.71-36.66,70.53-67.21,92.42-30.55,21.9-69.25,33.1-116.09,33.61-30.05.5-56.65-2.67-79.82-9.55-23.18-6.87-42.53-16.92-58.05-30.17-15.54-13.23-27.25-29.14-35.13-47.74-7.9-18.58-11.84-39.58-11.84-63.01Zm97.77,6.87c0,39.22,8.68,69.77,26.04,91.66,17.35,21.9,45.45,32.84,84.25,32.84,21.96,0,42.76-3.44,62.43-10.31,19.65-6.87,36.64-17.95,50.93-33.22,14.3-15.28,25.66-35.13,34.08-59.58,8.43-24.44,12.64-54.23,12.64-89.36v-94.71c-15.83-.5-33.45-.63-52.85-.38-19.41.26-39.2,1.91-59.36,4.97-20.17,3.06-39.71,7.9-58.6,14.51-18.89,6.62-35.74,16.04-50.55,28.26-14.81,12.22-26.68,27.76-35.61,46.59-8.94,18.84-13.4,41.76-13.4,68.74Zm3.06-261.98c1.01,25.47,11.61,47.62,31.78,66.45,20.17,18.84,50.17,28.77,90.01,29.78,21.44-2.54,42.38-4.32,62.81-5.35,20.43-1.02,40.33-1.53,59.74-1.53h22.98c-.51-28-3.2-53.71-8.04-77.14-4.85-23.41-12.9-43.78-24.13-61.1-11.25-17.31-25.92-30.93-44.05-40.86-18.13-9.93-40.98-15.15-68.55-15.66-16.35,0-31.79,2.29-46.34,6.87-14.56,4.58-27.58,11.46-39.06,20.62-11.49,9.17-20.56,20.24-27.2,33.23-6.64,12.98-9.95,27.88-9.95,44.68Zm578.19,58.05c0,23.42,2.54,45.19,7.63,65.3,5.09,20.12,13.37,37.42,24.83,51.94,11.46,14.51,26.22,25.85,44.3,33.99,18.07,8.15,40.1,12.22,66.07,12.22,23.93,0,44.04-4.96,60.34-14.89,16.29-9.93,29.41-23.03,39.34-39.34,9.93-16.29,17.05-34.88,21.39-55.76,4.32-20.87,6.49-42.26,6.49-64.16s-2.8-43.02-8.4-61.87c-5.61-18.83-14.01-35.13-25.2-48.88-11.2-13.75-24.96-24.44-41.24-32.08-16.31-7.64-35.4-11.46-57.29-11.46s-39.71,4.08-56.52,12.22c-16.8,8.15-31.32,19.48-43.54,33.99-12.22,14.51-21.65,31.96-28.26,52.32-6.62,20.37-9.93,42.52-9.93,66.45Z"/>
  </g>
</svg>